<svg width="172" height="180" viewBox="0 0 172 180" fill="none" xmlns="http://www.w3.org/2000/svg">
  <path fill-rule="evenodd" clip-rule="evenodd"
    d="M9.97658 38.35L72.1835 2.0023C80.8921 -0.508067 85.7753 -0.616022 94.4841 1.44311L159.625 36.1132C166.599 42.0294 168.789 46.007 170.189 54.0075L171.362 124.466C168.505 134.204 165.478 138.243 158.452 143.479L94.4841 178.149C85.039 180.744 79.9135 180.659 71.0098 177.59L9.97658 140.124C4.14599 135.127 2.29056 131.596 0.586858 124.466L0 55.1259C1.34843 47.4545 3.50994 43.7714 9.97658 38.35ZM38.2724 44.1571L18.0839 90.4512C16.7147 96.2261 17.0878 99.2525 19.7067 104.289L50.8389 144.676C54.9996 148.168 57.651 149.491 63.2749 150.075L115.554 147.497C122.116 145.717 125.147 143.707 129.511 138.391L151.472 92.3719C153.251 86.4807 153.225 82.8983 150.57 76.0447L118.598 35.2381C114.229 31.1135 111.183 29.6636 104.484 29L51.0474 34.8674C45.0472 37.1609 42.2434 39.1866 38.2724 44.1571ZM63.7074 54.3822L43.6745 80.0056C41.8859 83.3722 41.6227 85.2981 42.4196 88.799L55.0721 118.375C57.074 121.15 58.497 122.361 61.8777 123.555L94.6123 129.707C98.9591 129.579 101.161 128.786 104.725 126.146L125.809 100.956C127.87 97.5778 128.438 95.3597 127.916 90.7301L114.813 60.7704C112.785 57.5735 111.139 56.2261 107.106 54.8234L73.1196 50.5329C69.0367 51.0615 66.9731 51.8982 63.7074 54.3822Z"
    fill="#1EB858" />
</svg>